<svg width="50" height="51" viewBox="0 0 50 51" fill="none" xmlns="http://www.w3.org/2000/svg">
<path opacity="0.2" d="M37.5 26.7246V42.3496H12.5V26.7246L25 14.2246L37.5 26.7246Z" fill="black"/>
<path d="M44.8555 37.2051L38.6055 43.4551C38.4604 43.6004 38.288 43.7156 38.0984 43.7942C37.9087 43.8729 37.7054 43.9133 37.5 43.9133C37.2947 43.9133 37.0914 43.8729 36.9017 43.7942C36.712 43.7156 36.5397 43.6004 36.3945 43.4551L30.1445 37.2051C29.8514 36.9119 29.6866 36.5142 29.6866 36.0996C29.6866 35.685 29.8514 35.2873 30.1445 34.9941C30.4377 34.701 30.8354 34.5362 31.25 34.5362C31.6646 34.5362 32.0623 34.701 32.3555 34.9941L35.9375 38.5781V27.3711L25 16.4336L14.0625 27.3711V38.5781L17.6445 34.9941C17.9377 34.701 18.3354 34.5362 18.75 34.5362C19.1646 34.5362 19.5623 34.701 19.8555 34.9941C20.1487 35.2873 20.3134 35.685 20.3134 36.0996C20.3134 36.5142 20.1487 36.9119 19.8555 37.2051L13.6055 43.4551C13.4604 43.6004 13.288 43.7156 13.0984 43.7942C12.9087 43.8729 12.7054 43.9133 12.5 43.9133C12.2947 43.9133 12.0914 43.8729 11.9017 43.7942C11.712 43.7156 11.5397 43.6004 11.3945 43.4551L5.14455 37.2051C4.99937 37.0599 4.88422 36.8876 4.80565 36.6979C4.72708 36.5082 4.68665 36.3049 4.68665 36.0996C4.68665 35.8943 4.72708 35.691 4.80565 35.5013C4.88422 35.3117 4.99937 35.1393 5.14455 34.9941C5.43773 34.701 5.83538 34.5362 6.25001 34.5362C6.45532 34.5362 6.65861 34.5767 6.84829 34.6552C7.03797 34.7338 7.21031 34.849 7.35548 34.9941L10.9375 38.5781V26.7246C10.9374 26.5194 10.9776 26.3161 11.0561 26.1264C11.1345 25.9367 11.2495 25.7644 11.3945 25.6191L23.4375 13.5781V4.84961C23.4375 4.43521 23.6021 4.03778 23.8952 3.74475C24.1882 3.45173 24.5856 3.28711 25 3.28711C25.4144 3.28711 25.8118 3.45173 26.1049 3.74475C26.3979 4.03778 26.5625 4.43521 26.5625 4.84961V13.5781L38.6055 25.6191C38.7505 25.7644 38.8656 25.9367 38.944 26.1264C39.0224 26.3161 39.0627 26.5194 39.0625 26.7246V38.5781L42.6445 34.9941C42.9377 34.701 43.3354 34.5362 43.75 34.5362C44.1646 34.5362 44.5623 34.701 44.8555 34.9941C45.1487 35.2873 45.3134 35.685 45.3134 36.0996C45.3134 36.5142 45.1487 36.9119 44.8555 37.2051Z" fill="#58D1BD"/>
</svg>
