<svg width="50" height="51" viewBox="0 0 50 51" fill="none" xmlns="http://www.w3.org/2000/svg">
<path opacity="0.2" d="M46.875 20.9746V28.7871C46.875 31.2735 45.8873 33.6581 44.1291 35.4162C42.371 37.1744 39.9864 38.1621 37.5 38.1621H12.5C10.0136 38.1621 7.62903 37.1744 5.87087 35.4162C4.11272 33.6581 3.125 31.2735 3.125 28.7871V20.9746H26.5625V28.7871H39.0625V20.9746H46.875Z" fill="#8A35BC"/>
<path d="M46.875 19.4122H40.625C40.625 18.9978 40.4604 18.6004 40.1674 18.3073C39.8743 18.0143 39.4769 17.8497 39.0625 17.8497H26.5625C26.1481 17.8497 25.7507 18.0143 25.4576 18.3073C25.1646 18.6004 25 18.9978 25 19.4122H12.5V10.8184C12.5 10.1968 12.7469 9.60069 13.1865 9.16115C13.626 8.72161 14.2221 8.47468 14.8438 8.47468C15.3931 8.47244 15.9269 8.6564 16.3583 8.99657C16.7896 9.33673 17.0929 9.81302 17.2188 10.3477C17.3046 10.7504 17.5459 11.1029 17.8902 11.3287C18.2345 11.5544 18.654 11.6351 19.0575 11.5533C19.461 11.4715 19.8159 11.2337 20.045 10.8916C20.2742 10.5496 20.3591 10.1309 20.2812 9.72663C20.016 8.4833 19.3305 7.3693 18.3401 6.57212C17.3498 5.77494 16.1151 5.34324 14.8438 5.34968C13.3933 5.34968 12.0023 5.92585 10.9768 6.95144C9.95117 7.97703 9.375 9.36803 9.375 10.8184V19.4122H3.125C2.7106 19.4122 2.31317 19.5768 2.02015 19.8698C1.72712 20.1629 1.5625 20.5603 1.5625 20.9747V28.7872C1.5656 31.687 2.71894 34.4672 4.76945 36.5177C6.81995 38.5682 9.60015 39.7216 12.5 39.7247V42.8497C12.5 43.2641 12.6646 43.6615 12.9576 43.9545C13.2507 44.2476 13.6481 44.4122 14.0625 44.4122C14.4769 44.4122 14.8743 44.2476 15.1674 43.9545C15.4604 43.6615 15.625 43.2641 15.625 42.8497V39.7247H34.375V42.8497C34.375 43.2641 34.5396 43.6615 34.8326 43.9545C35.1257 44.2476 35.5231 44.4122 35.9375 44.4122C36.3519 44.4122 36.7493 44.2476 37.0424 43.9545C37.3354 43.6615 37.5 43.2641 37.5 42.8497V39.7247C40.3999 39.7216 43.18 38.5682 45.2306 36.5177C47.2811 34.4672 48.4344 31.687 48.4375 28.7872V20.9747C48.4375 20.5603 48.2729 20.1629 47.9799 19.8698C47.6868 19.5768 47.2894 19.4122 46.875 19.4122ZM37.5 20.9747V27.2247H28.125V20.9747H37.5ZM45.3125 28.7872C45.3125 29.8131 45.1104 30.829 44.7178 31.7769C44.3252 32.7248 43.7497 33.586 43.0243 34.3115C42.2988 35.0369 41.4376 35.6124 40.4897 36.005C39.5419 36.3976 38.526 36.5997 37.5 36.5997H12.5C10.428 36.5997 8.44086 35.7766 6.97573 34.3115C5.5106 32.8463 4.6875 30.8592 4.6875 28.7872V22.5372H25V28.7872C25 29.2016 25.1646 29.599 25.4576 29.892C25.7507 30.1851 26.1481 30.3497 26.5625 30.3497H39.0625C39.4769 30.3497 39.8743 30.1851 40.1674 29.892C40.4604 29.599 40.625 29.2016 40.625 28.7872V22.5372H45.3125V28.7872Z" fill="#FAFF00"/>
</svg>
