<svg width="50" height="51" viewBox="0 0 50 51" fill="none" xmlns="http://www.w3.org/2000/svg">
<g clip-path="url(#clip0_2926_23638)">
<path opacity="0.2" d="M37.5 11.0996V43.9121C37.5 44.7409 37.1708 45.5358 36.5847 46.1218C35.9987 46.7079 35.2038 47.0371 34.375 47.0371H15.625C14.7962 47.0371 14.0013 46.7079 13.4153 46.1218C12.8292 45.5358 12.5 44.7409 12.5 43.9121V11.0996C12.5 10.2708 12.8292 9.47595 13.4153 8.8899C14.0013 8.30385 14.7962 7.97461 15.625 7.97461H34.375C35.2038 7.97461 35.9987 8.30385 36.5847 8.8899C37.1708 9.47595 37.5 10.2708 37.5 11.0996Z" fill="black"/>
<path d="M17.1875 1.72461C17.1875 1.31021 17.3521 0.912781 17.6451 0.619755C17.9382 0.326729 18.3356 0.162109 18.75 0.162109L31.25 0.162109C31.6644 0.162109 32.0618 0.326729 32.3549 0.619755C32.6479 0.912781 32.8125 1.31021 32.8125 1.72461C32.8125 2.13901 32.6479 2.53644 32.3549 2.82946C32.0618 3.12249 31.6644 3.28711 31.25 3.28711H18.75C18.3356 3.28711 17.9382 3.12249 17.6451 2.82946C17.3521 2.53644 17.1875 2.13901 17.1875 1.72461ZM39.0625 11.0996V43.9121C39.0625 45.1553 38.5686 46.3476 37.6896 47.2267C36.8105 48.1057 35.6182 48.5996 34.375 48.5996H15.625C14.3818 48.5996 13.1895 48.1057 12.3104 47.2267C11.4314 46.3476 10.9375 45.1553 10.9375 43.9121V11.0996C10.9375 9.85641 11.4314 8.66412 12.3104 7.78505C13.1895 6.90597 14.3818 6.41211 15.625 6.41211H34.375C35.6182 6.41211 36.8105 6.90597 37.6896 7.78505C38.5686 8.66412 39.0625 9.85641 39.0625 11.0996ZM35.9375 11.0996C35.9375 10.6852 35.7729 10.2878 35.4799 9.99476C35.1868 9.70173 34.7894 9.53711 34.375 9.53711H15.625C15.2106 9.53711 14.8132 9.70173 14.5201 9.99476C14.2271 10.2878 14.0625 10.6852 14.0625 11.0996V43.9121C14.0625 44.3265 14.2271 44.7239 14.5201 45.017C14.8132 45.31 15.2106 45.4746 15.625 45.4746H34.375C34.7894 45.4746 35.1868 45.31 35.4799 45.017C35.7729 44.7239 35.9375 44.3265 35.9375 43.9121V11.0996ZM31.25 14.2246H18.75C18.3356 14.2246 17.9382 14.3892 17.6451 14.6823C17.3521 14.9753 17.1875 15.3727 17.1875 15.7871C17.1875 16.2015 17.3521 16.5989 17.6451 16.892C17.9382 17.185 18.3356 17.3496 18.75 17.3496H31.25C31.6644 17.3496 32.0618 17.185 32.3549 16.892C32.6479 16.5989 32.8125 16.2015 32.8125 15.7871C32.8125 15.3727 32.6479 14.9753 32.3549 14.6823C32.0618 14.3892 31.6644 14.2246 31.25 14.2246ZM31.25 22.0371H18.75C18.3356 22.0371 17.9382 22.2017 17.6451 22.4948C17.3521 22.7878 17.1875 23.1852 17.1875 23.5996C17.1875 24.014 17.3521 24.4114 17.6451 24.7045C17.9382 24.9975 18.3356 25.1621 18.75 25.1621H31.25C31.6644 25.1621 32.0618 24.9975 32.3549 24.7045C32.6479 24.4114 32.8125 24.014 32.8125 23.5996C32.8125 23.1852 32.6479 22.7878 32.3549 22.4948C32.0618 22.2017 31.6644 22.0371 31.25 22.0371ZM31.25 29.8496H18.75C18.3356 29.8496 17.9382 30.0142 17.6451 30.3073C17.3521 30.6003 17.1875 30.9977 17.1875 31.4121C17.1875 31.8265 17.3521 32.2239 17.6451 32.517C17.9382 32.81 18.3356 32.9746 18.75 32.9746H31.25C31.6644 32.9746 32.0618 32.81 32.3549 32.517C32.6479 32.2239 32.8125 31.8265 32.8125 31.4121C32.8125 30.9977 32.6479 30.6003 32.3549 30.3073C32.0618 30.0142 31.6644 29.8496 31.25 29.8496ZM31.25 37.6621H18.75C18.3356 37.6621 17.9382 37.8267 17.6451 38.1198C17.3521 38.4128 17.1875 38.8102 17.1875 39.2246C17.1875 39.639 17.3521 40.0364 17.6451 40.3295C17.9382 40.6225 18.3356 40.7871 18.75 40.7871H31.25C31.6644 40.7871 32.0618 40.6225 32.3549 40.3295C32.6479 40.0364 32.8125 39.639 32.8125 39.2246C32.8125 38.8102 32.6479 38.4128 32.3549 38.1198C32.0618 37.8267 31.6644 37.6621 31.25 37.6621Z" fill="#6100FF"/>
</g>
<defs>
<clipPath id="clip0_2926_23638">
<rect width="50" height="50" fill="white" transform="translate(0 0.162109)"/>
</clipPath>
</defs>
</svg>
