<svg width="51" height="51" viewBox="0 0 51 51" fill="none" xmlns="http://www.w3.org/2000/svg">
<path opacity="0.2" d="M33.3125 32.9741L38 39.2241H13L17.6875 32.9741H33.3125ZM34.875 17.3491C33.9479 17.3491 33.0416 17.624 32.2708 18.1391C31.4999 18.6542 30.8991 19.3863 30.5443 20.2428C30.1895 21.0993 30.0967 22.0418 30.2776 22.9511C30.4584 23.8604 30.9049 24.6956 31.5604 25.3512C32.216 26.0067 33.0512 26.4532 33.9605 26.6341C34.8698 26.8149 35.8123 26.7221 36.6688 26.3673C37.5254 26.0125 38.2574 25.4117 38.7725 24.6409C39.2876 23.87 39.5625 22.9637 39.5625 22.0366C39.5625 20.7934 39.0686 19.6011 38.1896 18.7221C37.3105 17.843 36.1182 17.3491 34.875 17.3491ZM20.8125 22.0366C20.8125 21.1095 20.5376 20.2032 20.0225 19.4324C19.5074 18.6615 18.7754 18.0607 17.9188 17.7059C17.0623 17.3512 16.1198 17.2583 15.2105 17.4392C14.3012 17.6201 13.466 18.0665 12.8104 18.7221C12.1549 19.3776 11.7084 20.2129 11.5276 21.1221C11.3467 22.0314 11.4395 22.9739 11.7943 23.8305C12.1491 24.687 12.7499 25.4191 13.5208 25.9341C14.2916 26.4492 15.1979 26.7241 16.125 26.7241C17.3682 26.7241 18.5605 26.2303 19.4396 25.3512C20.3186 24.4721 20.8125 23.2798 20.8125 22.0366Z" fill="black"/>
<path d="M44.25 9.53662H6.75C5.9212 9.53662 5.12634 9.86586 4.54029 10.4519C3.95424 11.038 3.625 11.8328 3.625 12.6616V37.6616C3.625 38.4904 3.95424 39.2853 4.54029 39.8713C5.12634 40.4574 5.9212 40.7866 6.75 40.7866H44.25C45.0788 40.7866 45.8737 40.4574 46.4597 39.8713C47.0458 39.2853 47.375 38.4904 47.375 37.6616V12.6616C47.375 11.8328 47.0458 11.038 46.4597 10.4519C45.8737 9.86586 45.0788 9.53662 44.25 9.53662ZM16.125 37.6616L18.4688 34.5366H32.5312L34.875 37.6616H16.125ZM44.25 37.6616H38.7812L34.5625 32.0366C34.417 31.8426 34.2282 31.6851 34.0113 31.5766C33.7943 31.4681 33.5551 31.4116 33.3125 31.4116H17.6875C17.4449 31.4116 17.2057 31.4681 16.9887 31.5766C16.7718 31.6851 16.583 31.8426 16.4375 32.0366L12.2188 37.6616H6.75V12.6616H44.25V37.6616ZM34.875 15.7866H16.125C14.4674 15.7866 12.8777 16.4451 11.7056 17.6172C10.5335 18.7893 9.875 20.379 9.875 22.0366C9.875 23.6942 10.5335 25.2839 11.7056 26.456C12.8777 27.6281 14.4674 28.2866 16.125 28.2866H34.875C36.5326 28.2866 38.1223 27.6281 39.2944 26.456C40.4665 25.2839 41.125 23.6942 41.125 22.0366C41.125 20.379 40.4665 18.7893 39.2944 17.6172C38.1223 16.4451 36.5326 15.7866 34.875 15.7866ZM29.4648 18.9116C28.9148 19.8612 28.6251 20.9392 28.6251 22.0366C28.6251 23.134 28.9148 24.212 29.4648 25.1616H21.5352C22.0852 24.212 22.3749 23.134 22.3749 22.0366C22.3749 20.9392 22.0852 19.8612 21.5352 18.9116H29.4648ZM13 22.0366C13 21.4186 13.1833 20.8144 13.5267 20.3005C13.87 19.7866 14.3581 19.386 14.9291 19.1495C15.5001 18.913 16.1285 18.8511 16.7347 18.9717C17.3408 19.0922 17.8977 19.3899 18.3347 19.8269C18.7717 20.264 19.0694 20.8208 19.19 21.427C19.3105 22.0332 19.2486 22.6615 19.0121 23.2325C18.7756 23.8035 18.3751 24.2916 17.8612 24.635C17.3473 24.9783 16.7431 25.1616 16.125 25.1616C15.2962 25.1616 14.5013 24.8324 13.9153 24.2463C13.3292 23.6603 13 22.8654 13 22.0366ZM34.875 25.1616C34.2569 25.1616 33.6527 24.9783 33.1388 24.635C32.6249 24.2916 32.2244 23.8035 31.9879 23.2325C31.7514 22.6615 31.6895 22.0332 31.81 21.427C31.9306 20.8208 32.2283 20.264 32.6653 19.8269C33.1023 19.3899 33.6592 19.0922 34.2653 18.9717C34.8715 18.8511 35.4999 18.913 36.0709 19.1495C36.6419 19.386 37.13 19.7866 37.4733 20.3005C37.8167 20.8144 38 21.4186 38 22.0366C38 22.8654 37.6708 23.6603 37.0847 24.2463C36.4987 24.8324 35.7038 25.1616 34.875 25.1616Z" fill="#58D1BD"/>
</svg>
