<svg width="150" height="109" viewBox="0 0 150 109" fill="none" xmlns="http://www.w3.org/2000/svg">
<mask id="mask0_2993_3109" style="mask-type:luminance" maskUnits="userSpaceOnUse" x="0" y="0" width="150" height="109">
<path d="M150 0.512695H0V108.488H150V0.512695Z" fill="white"/>
</mask>
<g mask="url(#mask0_2993_3109)">
<path d="M0 50.0068V66.8248C41.5993 30.5248 55.4076 146.325 139.845 75.8878C142.855 73.3854 145.422 69.2172 147.228 63.9001C149.033 58.583 149.997 52.351 150 45.9768C57.8765 133.322 43.639 12.0918 1.97084 44.3528C1.38959 44.8032 0.891071 45.5827 0.539728 46.5907C0.188383 47.5986 0.000374278 48.7886 0 50.0068Z" fill="#458985"/>
<path d="M149.606 7.74445C121.961 -16.3775 106.59 26.6655 74.6077 37.5914C92.6164 43.7434 115.896 39.7075 149.606 7.74445Z" fill="#67C973"/>
<path d="M0 37.3842C42.9381 -0.0897865 56.2692 124.493 148.217 39.0582C148.75 38.5636 149.2 37.7853 149.516 36.8133C149.832 35.8412 149.999 34.7151 150 33.5652V16.5332C66.4886 95.7112 46.9819 3.49121 13.0236 9.59021C9.46427 10.2275 6.15553 13.431 3.74623 18.5728C1.33692 23.7145 0.000863958 30.4235 0 37.3842Z" fill="#458985"/>
<path d="M0.394897 76.2122C28.0335 52.0902 43.4074 95.1332 75.3893 106.061C57.3764 112.21 34.1016 108.175 0.394897 76.2122Z" fill="#EF980C"/>
</g>
</svg>
