<svg width="150" height="151" viewBox="0 0 150 151" fill="none" xmlns="http://www.w3.org/2000/svg">
<mask id="mask0_2993_3101" style="mask-type:luminance" maskUnits="userSpaceOnUse" x="0" y="0" width="150" height="151">
<path d="M150 0.5H0V150.5H150V0.5Z" fill="white"/>
</mask>
<g mask="url(#mask0_2993_3101)">
<path d="M55.6581 48.2683C56.2964 47.5796 56.8026 46.7607 57.1479 45.8587C57.4932 44.9566 57.6706 43.9894 57.6698 43.0127C57.6691 42.0359 57.4902 41.069 57.1436 40.1676C56.797 39.2662 56.2894 38.4482 55.6502 37.7606C55.0109 37.0731 54.2526 36.5296 53.4189 36.1616C52.5852 35.7935 51.6927 35.6081 50.7928 35.6161C49.8928 35.6241 49.0032 35.8253 48.1752 36.208C47.3472 36.5909 46.5971 37.1477 45.9683 37.8465C40.2853 44.0769 36.4318 51.9959 34.895 60.6026C33.3582 69.2093 34.2071 78.1173 37.3344 86.2005C40.4616 94.2836 45.7268 101.179 52.4645 106.015C59.2021 110.852 67.1097 113.412 75.1875 113.371C83.2652 113.332 91.1514 110.693 97.8479 105.79C104.544 100.887 109.751 93.9396 112.81 85.8253C115.869 77.7115 116.643 68.7955 115.033 60.2044C113.424 51.6133 109.504 43.733 103.769 37.5593C103.132 36.875 102.378 36.3334 101.548 35.9655C100.719 35.5976 99.8315 35.4106 98.9351 35.4151C98.0394 35.4196 97.153 35.6156 96.3269 35.9919C95.5008 36.3681 94.7514 36.9173 94.1203 37.608C93.49 38.2986 92.9908 39.1174 92.6524 40.0173C92.3132 40.9173 92.1411 41.881 92.1446 42.8533C92.149 43.8255 92.3297 44.7874 92.676 45.6839C93.0231 46.5805 93.5294 47.3941 94.1655 48.0784C97.9899 52.1922 100.605 57.4445 101.68 63.1711C102.754 68.8976 102.239 74.8413 100.201 80.2506C98.1627 85.6596 94.6926 90.2918 90.2285 93.5606C85.7651 96.8293 80.5086 98.5882 75.1237 98.6154C69.7388 98.6419 64.4676 96.9352 59.9765 93.7108C55.4854 90.4864 51.976 85.8892 49.8923 80.5004C47.8086 75.1119 47.244 69.1736 48.2699 63.4366C49.2958 57.6996 51.8662 52.4216 55.656 48.2699L55.6581 48.2683Z" fill="url(#paint0_linear_2993_3101)"/>
<path d="M103.652 0.5C99.1715 0.508798 94.7368 1.48203 90.6047 3.36339C86.4727 5.24474 82.7257 7.99684 79.5804 11.4604C78.3061 12.8531 76.5749 13.6403 74.7663 13.6492C72.9577 13.6581 71.2196 12.888 69.9336 11.5078C63.503 4.6089 54.8137 0.759703 45.7715 0.804641C36.7293 0.849579 28.0727 4.78498 21.7006 11.7475C11.2665 23.1857 4.19127 37.7243 1.36936 53.5257C-1.45255 69.327 0.105529 85.6817 5.84666 100.522C11.5878 115.363 21.2542 128.023 33.624 136.902C45.9938 145.781 60.5116 150.481 75.3422 150.407C90.173 150.334 104.65 145.49 116.945 136.489C129.24 127.487 138.799 114.731 144.415 99.8353C150.031 84.9385 151.451 68.5689 148.496 52.7962C145.541 37.0235 138.344 22.5556 127.814 11.2214C124.64 7.78936 120.87 5.07458 116.722 3.23424C112.575 1.3939 108.133 0.464569 103.652 0.5ZM118.21 21.7382C126.835 31.0136 132.732 42.8563 135.155 55.7689C137.578 68.6815 136.42 82.0838 131.824 94.2816C127.229 106.479 119.404 116.924 109.339 124.296C99.274 131.667 87.4207 135.633 75.2784 135.693C63.1362 135.754 51.2502 131.906 41.1234 124.634C30.9966 117.364 23.0839 106.996 18.3859 94.8451C13.688 82.6939 12.4158 69.3032 14.7302 56.367C17.0446 43.4308 22.8416 31.5299 31.3883 22.1694C35.2119 17.9918 40.4061 15.6306 45.8316 15.6036C51.2572 15.5766 56.4711 17.8861 60.3299 22.0254C64.1878 26.165 69.4012 28.4747 74.8266 28.4479C80.2516 28.4211 85.445 26.0598 89.268 21.8822C93.0881 17.6985 98.2837 15.333 103.711 15.306C109.138 15.2789 114.353 17.5927 118.208 21.7382" fill="url(#paint1_linear_2993_3101)"/>
<path d="M74.9996 82.1705C81.121 82.1705 86.0828 76.7854 86.0828 70.1424C86.0828 63.4994 81.121 58.1143 74.9996 58.1143C68.8786 58.1143 63.9165 63.4994 63.9165 70.1424C63.9165 76.7854 68.8786 82.1705 74.9996 82.1705Z" fill="url(#paint2_linear_2993_3101)"/>
</g>
<defs>
<linearGradient id="paint0_linear_2993_3101" x1="75.0004" y1="158.275" x2="75.0004" y2="0.958078" gradientUnits="userSpaceOnUse">
<stop stop-color="#00CD9E"/>
<stop offset="1" stop-color="#38A3DC"/>
</linearGradient>
<linearGradient id="paint1_linear_2993_3101" x1="74.9994" y1="158.204" x2="74.9994" y2="0.948747" gradientUnits="userSpaceOnUse">
<stop stop-color="#00CD9E"/>
<stop offset="1" stop-color="#38A3DC"/>
</linearGradient>
<linearGradient id="paint2_linear_2993_3101" x1="74.9996" y1="158.333" x2="74.9996" y2="0.956356" gradientUnits="userSpaceOnUse">
<stop stop-color="#00AB9E"/>
<stop offset="1" stop-color="#38A3DC"/>
</linearGradient>
</defs>
</svg>
