<svg width="50" height="51" viewBox="0 0 50 51" fill="none" xmlns="http://www.w3.org/2000/svg">
<path opacity="0.2" d="M17.1875 9.53711V40.7871C17.1875 41.2015 17.0229 41.5989 16.7299 41.892C16.4368 42.185 16.0394 42.3496 15.625 42.3496H10.9375C10.5231 42.3496 10.1257 42.185 9.83265 41.892C9.53962 41.5989 9.375 41.2015 9.375 40.7871V9.53711C9.375 9.12271 9.53962 8.72528 9.83265 8.43226C10.1257 8.13923 10.5231 7.97461 10.9375 7.97461H15.625C16.0394 7.97461 16.4368 8.13923 16.7299 8.43226C17.0229 8.72528 17.1875 9.12271 17.1875 9.53711ZM29.6875 7.97461H25C24.5856 7.97461 24.1882 8.13923 23.8951 8.43226C23.6021 8.72528 23.4375 9.12271 23.4375 9.53711V40.7871C23.4375 41.2015 23.6021 41.5989 23.8951 41.892C24.1882 42.185 24.5856 42.3496 25 42.3496H29.6875C30.1019 42.3496 30.4993 42.185 30.7924 41.892C31.0854 41.5989 31.25 41.2015 31.25 40.7871V9.53711C31.25 9.12271 31.0854 8.72528 30.7924 8.43226C30.4993 8.13923 30.1019 7.97461 29.6875 7.97461Z" fill="black"/>
<path d="M15.625 6.41211H10.9375C10.1087 6.41211 9.31384 6.74135 8.72779 7.3274C8.14174 7.91345 7.8125 8.70831 7.8125 9.53711V40.7871C7.8125 41.6159 8.14174 42.4108 8.72779 42.9968C9.31384 43.5829 10.1087 43.9121 10.9375 43.9121H15.625C16.4538 43.9121 17.2487 43.5829 17.8347 42.9968C18.4208 42.4108 18.75 41.6159 18.75 40.7871V9.53711C18.75 8.70831 18.4208 7.91345 17.8347 7.3274C17.2487 6.74135 16.4538 6.41211 15.625 6.41211ZM15.625 40.7871H10.9375V9.53711H15.625V40.7871ZM29.6875 6.41211H25C24.1712 6.41211 23.3763 6.74135 22.7903 7.3274C22.2042 7.91345 21.875 8.70831 21.875 9.53711V40.7871C21.875 41.6159 22.2042 42.4108 22.7903 42.9968C23.3763 43.5829 24.1712 43.9121 25 43.9121H29.6875C30.5163 43.9121 31.3112 43.5829 31.8972 42.9968C32.4833 42.4108 32.8125 41.6159 32.8125 40.7871V9.53711C32.8125 8.70831 32.4833 7.91345 31.8972 7.3274C31.3112 6.74135 30.5163 6.41211 29.6875 6.41211ZM29.6875 40.7871H25V9.53711H29.6875V40.7871ZM48.4375 25.1621C48.4375 25.5765 48.2729 25.9739 47.9799 26.267C47.6868 26.56 47.2894 26.7246 46.875 26.7246H43.75V29.8496C43.75 30.264 43.5854 30.6614 43.2924 30.9545C42.9993 31.2475 42.6019 31.4121 42.1875 31.4121C41.7731 31.4121 41.3757 31.2475 41.0826 30.9545C40.7896 30.6614 40.625 30.264 40.625 29.8496V26.7246H37.5C37.0856 26.7246 36.6882 26.56 36.3951 26.267C36.1021 25.9739 35.9375 25.5765 35.9375 25.1621C35.9375 24.7477 36.1021 24.3503 36.3951 24.0573C36.6882 23.7642 37.0856 23.5996 37.5 23.5996H40.625V20.4746C40.625 20.0602 40.7896 19.6628 41.0826 19.3698C41.3757 19.0767 41.7731 18.9121 42.1875 18.9121C42.6019 18.9121 42.9993 19.0767 43.2924 19.3698C43.5854 19.6628 43.75 20.0602 43.75 20.4746V23.5996H46.875C47.2894 23.5996 47.6868 23.7642 47.9799 24.0573C48.2729 24.3503 48.4375 24.7477 48.4375 25.1621Z" fill="#344F93"/>
</svg>
