<svg width="100" height="101" viewBox="0 0 100 101" fill="none" xmlns="http://www.w3.org/2000/svg">
<path opacity="0.2" d="M76.5156 77.1772L61.0469 61.7085C63.9761 58.7784 65.6217 54.8048 65.6217 50.6616C65.6217 46.5184 63.9761 42.5449 61.0469 39.6147L76.5156 24.146C83.5477 31.1785 87.4983 40.7164 87.4983 50.6616C87.4983 60.6068 83.5477 70.1447 76.5156 77.1772ZM23.4844 24.146C16.4523 31.1785 12.5018 40.7164 12.5018 50.6616C12.5018 60.6068 16.4523 70.1447 23.4844 77.1772L38.9531 61.7085C36.0239 58.7784 34.3783 54.8048 34.3783 50.6616C34.3783 46.5184 36.0239 42.5449 38.9531 39.6147L23.4844 24.146Z" fill="black"/>
<path d="M50 10.0366C41.9652 10.0366 34.1107 12.4192 27.43 16.8832C20.7492 21.3471 15.5422 27.6919 12.4674 35.1151C9.3926 42.5384 8.58809 50.7067 10.1556 58.5872C11.7231 66.4676 15.5923 73.7063 21.2738 79.3878C26.9553 85.0693 34.194 88.9385 42.0745 90.506C49.955 92.0735 58.1233 91.269 65.5465 88.1942C72.9698 85.1194 79.3145 79.9124 83.7785 73.2317C88.2424 66.5509 90.625 58.6965 90.625 50.6616C90.6136 39.8907 86.3299 29.5642 78.7137 21.948C71.0975 14.3318 60.7709 10.048 50 10.0366ZM65.2735 61.5171C67.5344 58.3489 68.7497 54.5538 68.7497 50.6616C68.7497 46.7694 67.5344 42.9743 65.2735 39.8062L76.4063 28.6772C81.5551 34.8461 84.3754 42.6264 84.3754 50.6616C84.3754 58.6968 81.5551 66.4772 76.4063 72.646L65.2735 61.5171ZM37.5 50.6616C37.5 48.1894 38.2331 45.7726 39.6066 43.717C40.9802 41.6614 42.9324 40.0592 45.2165 39.1131C47.5005 38.167 50.0139 37.9195 52.4386 38.4018C54.8634 38.8841 57.0907 40.0746 58.8389 41.8228C60.587 43.5709 61.7775 45.7982 62.2598 48.223C62.7421 50.6478 62.4946 53.1611 61.5485 55.4452C60.6024 57.7292 59.0003 59.6815 56.9446 61.055C54.889 62.4285 52.4723 63.1616 50 63.1616C46.6848 63.1616 43.5054 61.8447 41.1612 59.5005C38.817 57.1562 37.5 53.9768 37.5 50.6616ZM71.9844 24.2554L60.8555 35.3882C57.6873 33.1272 53.8922 31.9119 50 31.9119C46.1078 31.9119 42.3127 33.1272 39.1445 35.3882L28.0156 24.2554C34.1845 19.1065 41.9648 16.2862 50 16.2862C58.0352 16.2862 65.8156 19.1065 71.9844 24.2554ZM23.5938 28.6772L34.7266 39.8062C32.4656 42.9743 31.2503 46.7694 31.2503 50.6616C31.2503 54.5538 32.4656 58.3489 34.7266 61.5171L23.5938 72.646C18.4449 66.4772 15.6246 58.6968 15.6246 50.6616C15.6246 42.6264 18.4449 34.8461 23.5938 28.6772ZM28.0156 77.0679L39.1445 65.9351C42.3127 68.196 46.1078 69.4113 50 69.4113C53.8922 69.4113 57.6873 68.196 60.8555 65.9351L71.9844 77.0679C65.8156 82.2167 58.0352 85.037 50 85.037C41.9648 85.037 34.1845 82.2167 28.0156 77.0679Z" fill="url(#paint0_linear_2808_3236)"/>
<defs>
<linearGradient id="paint0_linear_2808_3236" x1="-20.2234" y1="98.2288" x2="38.4123" y2="12.9699" gradientUnits="userSpaceOnUse">
<stop stop-color="#FFC200" stop-opacity="0"/>
<stop offset="0.203" stop-color="#FFBB00" stop-opacity="0.203"/>
<stop offset="0.499" stop-color="#FFA700" stop-opacity="0.499"/>
<stop offset="0.852" stop-color="#FF8800" stop-opacity="0.852"/>
<stop offset="1" stop-color="#FF7800"/>
</linearGradient>
</defs>
</svg>
