<svg width="844" height="160" viewBox="0 0 844 160" fill="none" xmlns="http://www.w3.org/2000/svg">
  <path d="M33.0543 138.181C33.0543 126.132 42.8226 116.363 54.8725 116.363H105.781C117.831 116.363 127.6 126.132 127.6 138.181C127.6 150.231 117.831 160 105.781 160H54.8725C42.8226 160 33.0543 150.231 33.0543 138.181Z" fill="#FBCC26"/>
  <path d="M0 21.8181C0 9.76832 9.76831 0 21.8181 0H87.2725C99.3224 0 109.091 9.76832 109.091 21.8181C109.091 33.868 99.3224 43.6363 87.2725 43.6363H21.8181C9.76832 43.6363 0 33.868 0 21.8181Z" fill="#3586FF"/>
  <path d="M56.8666 79.9988C56.8666 67.949 66.6349 58.1807 78.6847 58.1807H180.503C192.553 58.1807 202.321 67.949 202.321 79.9988C202.321 92.0486 192.553 101.817 180.503 101.817H78.6847C66.6349 101.817 56.8666 92.0486 56.8666 79.9988Z" fill="#F2386A"/>
  <path d="M123.632 21.8181C123.632 9.76832 133.4 0 145.45 0C157.5 0 167.268 9.76832 167.268 21.8181C167.268 33.868 157.5 43.6363 145.45 43.6363C133.4 43.6363 123.632 33.868 123.632 21.8181Z" fill="#1CD688"/>
  <path d="M318.091 152.544C314.364 152.544 310.514 152.208 306.543 151.536C302.632 150.925 298.996 149.673 295.636 147.778C292.275 145.823 289.526 142.982 287.387 139.255C285.31 135.527 284.271 130.609 284.271 124.498V75.1888H261.816V59.516C261.816 56.0233 264.647 53.1919 268.14 53.1919C273.089 53.1919 276.694 52.8558 278.955 52.1837C281.277 51.5116 282.743 49.8007 283.354 47.0511C283.965 44.2404 284.271 39.6883 284.271 33.3947C284.271 26.6118 289.769 21.1131 296.552 21.1131H312.775V53.1919H341.096V75.1888H312.775V116.433C312.775 120.649 313.264 124.071 314.242 126.698C315.28 129.326 317.816 130.639 321.849 130.639C323.865 130.639 325.759 130.456 327.531 130.089C329.364 129.723 330.739 129.356 331.656 128.989V150.345C330.373 150.895 328.57 151.383 326.248 151.811C323.926 152.3 321.207 152.544 318.091 152.544Z" fill="white"/>
  <path d="M399.255 152.636C388.745 152.636 379.488 150.467 371.484 146.129C363.479 141.79 357.216 135.833 352.695 128.256C348.234 120.618 346.004 111.82 346.004 101.86C346.004 91.9614 348.234 83.2237 352.695 75.647C357.216 68.0092 363.479 62.0823 371.484 57.8662C379.488 53.5891 388.745 51.4505 399.255 51.4505C409.764 51.4505 419.021 53.5891 427.026 57.8662C435.03 62.0823 441.262 68.0092 445.723 75.647C450.245 83.2237 452.505 91.9614 452.505 101.86C452.505 111.82 450.245 120.618 445.723 128.256C441.262 135.833 435.03 141.79 427.026 146.129C419.021 150.467 409.764 152.636 399.255 152.636ZM399.255 130.089C406.648 130.089 412.575 127.523 417.035 122.39C421.496 117.258 423.726 110.414 423.726 101.86C423.726 93.3056 421.496 86.5233 417.035 81.5129C412.575 76.5025 406.648 73.9973 399.255 73.9973C391.861 73.9973 385.934 76.5025 381.474 81.5129C377.013 86.5233 374.783 93.3056 374.783 101.86C374.783 110.414 377.013 117.258 381.474 122.39C385.934 127.523 391.861 130.089 399.255 130.089Z" fill="white"/>
  <path d="M505.448 152.728C497.322 152.728 489.837 150.803 482.993 146.954C476.15 143.043 470.65 137.269 466.495 129.631C462.34 121.993 460.263 112.583 460.263 101.402C460.263 90.7088 462.371 81.6351 466.587 74.1806C470.864 66.7261 476.425 61.0741 483.268 57.2247C490.173 53.3141 497.566 51.3588 505.448 51.3588C511.253 51.3588 516.722 52.5198 521.854 54.8417C527.048 57.1025 531.569 60.2798 535.419 64.3736V22.549C535.419 14.1126 542.258 7.27344 550.695 7.27344H563.923V150.528H546.784C540.507 150.528 535.419 145.44 535.419 139.163C531.631 143.318 527.14 146.617 521.946 149.062C516.813 151.506 511.314 152.728 505.448 152.728ZM512.689 128.073C516.599 128.073 520.266 127.156 523.687 125.323C527.17 123.429 529.981 120.771 532.119 117.349C534.319 113.928 535.419 109.895 535.419 105.251V97.2773C535.419 92.6946 534.319 88.7535 532.119 85.454C529.92 82.1544 527.078 79.6187 523.596 77.8467C520.113 76.0136 516.477 75.0971 512.689 75.0971C506.456 75.0971 501.018 77.2051 496.374 81.4212C491.792 85.5762 489.5 92.2363 489.5 101.402C489.5 110.567 491.792 117.319 496.374 121.657C501.018 125.934 506.456 128.073 512.689 128.073Z" fill="white"/>
  <path d="M620.781 152.728C612.655 152.728 605.17 150.803 598.326 146.954C591.483 143.043 585.984 137.269 581.829 129.631C577.674 121.993 575.596 112.583 575.596 101.402C575.596 90.7088 577.704 81.6351 581.92 74.1806C586.197 66.7261 591.758 61.0741 598.601 57.2247C605.506 53.3141 612.899 51.3588 620.781 51.3588C626.586 51.3588 632.055 52.5198 637.187 54.8417C642.381 57.1025 646.903 60.2798 650.752 64.3736V22.549C650.752 14.1126 657.591 7.27344 666.028 7.27344H679.256V150.528H662.117C655.84 150.528 650.752 145.44 650.752 139.163C646.964 143.318 642.473 146.617 637.279 149.062C632.146 151.506 626.647 152.728 620.781 152.728ZM628.022 128.073C631.933 128.073 635.599 127.156 639.02 125.323C642.503 123.429 645.314 120.771 647.453 117.349C649.652 113.928 650.752 109.895 650.752 105.251V97.2773C650.752 92.6946 649.652 88.7535 647.453 85.454C645.253 82.1544 642.412 79.6187 638.929 77.8467C635.446 76.0136 631.81 75.0971 628.022 75.0971C621.79 75.0971 616.351 77.2051 611.708 81.4212C607.125 85.5762 604.834 92.2363 604.834 101.402C604.834 110.567 607.125 117.319 611.708 121.657C616.351 125.934 621.79 128.073 628.022 128.073Z" fill="white"/>
  <path d="M724.841 7.27344V150.528H712.071C703.634 150.528 696.795 143.689 696.795 135.252V22.5491C696.795 14.1126 703.634 7.27344 712.071 7.27344H724.841Z" fill="white"/>
  <path d="M842.282 119.824C841.794 125.323 839.472 130.609 835.317 135.68C831.223 140.691 825.418 144.784 817.903 147.962C810.448 151.139 801.435 152.728 790.865 152.728C780.111 152.728 770.731 150.589 762.727 146.312C754.723 141.974 748.521 136.016 744.121 128.44C739.722 120.802 737.522 112.003 737.522 102.043C737.522 91.9614 739.753 83.1321 744.213 75.5554C748.735 67.9176 754.998 61.9906 763.002 57.7746C771.068 53.4974 780.386 51.3588 790.956 51.3588C801.771 51.3588 811.12 53.528 819.002 57.8662C826.885 62.1434 832.964 68.162 837.241 75.922C841.519 83.6209 843.657 92.603 843.657 102.868C843.657 106.045 843.535 108.551 843.291 110.384H766.301C767.585 116.983 770.365 122.115 774.642 125.782C778.919 129.387 784.724 131.189 792.056 131.189C799.694 131.189 805.193 129.967 808.554 127.523C811.976 125.018 813.87 122.451 814.236 119.824H842.282ZM791.323 72.6225C784.785 72.6225 779.377 74.2722 775.1 77.5718C770.884 80.8713 768.043 85.5456 766.576 91.5948H814.603C814.175 86.7677 812.067 82.3988 808.279 78.4883C804.552 74.5777 798.9 72.6225 791.323 72.6225Z" fill="white"/>
</svg>