<svg width="150" height="151" viewBox="0 0 150 151" fill="none" xmlns="http://www.w3.org/2000/svg">
<path d="M135.806 150.5C133.671 150.499 131.564 150.119 129.643 149.388C127.72 148.658 126.032 147.595 124.703 146.28C120.591 142.785 88.8162 118.215 69.3452 103.235C67.9976 102.213 66.9204 100.991 66.1754 99.6386C65.4305 98.2873 65.0326 96.8328 65.0046 95.3596C64.9768 93.8864 65.3193 92.4232 66.0126 91.0545C66.706 89.6857 67.7365 88.4388 69.0447 87.3848C70.3528 86.3315 71.9129 85.4917 73.635 84.9145C75.3571 84.3373 77.2072 84.0346 79.0788 84.0225C80.9504 84.0105 82.8065 84.2904 84.5401 84.8455C86.2739 85.4013 87.8506 86.221 89.1801 87.2583C89.319 87.3654 103.342 98.1554 117.261 108.934L121.622 112.312V59.8446C121.622 39.4404 100.708 22.8402 75 22.8402C49.2921 22.8402 28.3784 39.4404 28.3784 59.8446V139.329C28.3784 142.292 26.8834 145.133 24.2224 147.227C21.5615 149.322 17.9524 150.499 14.1891 150.499C10.4259 150.499 6.8169 149.322 4.15591 147.227C1.49493 145.133 0 142.292 0 139.329V59.8446C0 27.1217 33.6447 0.5 75 0.5C116.355 0.5 150 27.1217 150 59.8446V139.329C149.998 142.292 148.503 145.133 145.841 147.228C143.179 149.323 139.57 150.499 135.806 150.5Z" fill="url(#paint0_linear_2993_3066)"/>
<defs>
<linearGradient id="paint0_linear_2993_3066" x1="75" y1="152.3" x2="75" y2="0.949994" gradientUnits="userSpaceOnUse">
<stop stop-color="#00C0F4"/>
<stop offset="1" stop-color="#12ECA0"/>
</linearGradient>
</defs>
</svg>
