<svg width="100" height="101" viewBox="0 0 100 101" fill="none" xmlns="http://www.w3.org/2000/svg">
<path d="M88.8887 11.7728H77.778V0.661621H22.2222V11.7728H11.1111C5 11.7728 0 16.7728 0 22.8838V28.4394C0 42.6061 10.6667 54.1616 24.3889 55.8838C27.8889 64.217 35.3889 70.4949 44.4445 72.3283V89.5503H22.2222V100.662H77.778V89.5503H55.5555V72.3283C64.6113 70.4949 72.1113 64.217 75.6113 55.8838C89.3333 54.1616 100 42.6061 100 28.4394V22.8838C100 16.7728 95 11.7728 88.8887 11.7728ZM11.1111 28.4394V22.8838H22.2222V44.1061C15.7778 41.7728 11.1111 35.6616 11.1111 28.4394ZM50 61.7728C40.8333 61.7728 33.3333 54.2728 33.3333 45.1061V11.7728H66.6667V45.1061C66.6667 54.2728 59.1667 61.7728 50 61.7728ZM88.8887 28.4394C88.8887 35.6616 84.222 41.7728 77.778 44.1061V22.8838H88.8887V28.4394Z" fill="#4AAF50"/>
</svg>
