<svg width="82" height="82" viewBox="0 0 82 82" fill="none" xmlns="http://www.w3.org/2000/svg">
<path d="M56.625 50.5365C56.625 57.4271 49.6172 63.0365 41 63.0365C32.3828 63.0365 25.375 57.4271 25.375 50.5365C25.375 49.7077 25.7043 48.9129 26.2903 48.3268C26.8764 47.7408 27.6712 47.4115 28.5 47.4115C29.3288 47.4115 30.1237 47.7408 30.7097 48.3268C31.2958 48.9129 31.625 49.7077 31.625 50.5365C31.625 53.9232 35.9219 56.7865 41 56.7865C46.0781 56.7865 50.375 53.9232 50.375 50.5365C50.375 46.8334 47.0117 45.4584 39.875 43.4037C33.7227 41.6303 26.0703 39.4232 26.0703 31.7865C26.0703 24.6615 32.4883 19.2865 41 19.2865C47.1406 19.2865 52.3984 22.1381 54.7188 26.7084C54.919 27.0758 55.0434 27.4797 55.0846 27.896C55.1257 28.3124 55.0829 28.7328 54.9586 29.1323C54.8342 29.5319 54.6309 29.9023 54.3607 30.2218C54.0905 30.5413 53.7589 30.8032 53.3856 30.9921C53.0122 31.181 52.6047 31.293 52.1873 31.3215C51.7698 31.3499 51.3509 31.2943 50.9554 31.1578C50.5599 31.0213 50.1958 30.8068 49.8847 30.5269C49.5737 30.2471 49.322 29.9076 49.1446 29.5287C47.8906 27.0756 44.7696 25.5365 41 25.5365C36.0508 25.5365 32.3203 28.224 32.3203 31.7865C32.3203 34.5209 35.836 35.7318 41.6055 37.3959C47.9453 39.2084 56.625 41.7279 56.625 50.5365ZM81.625 59.9115C81.6188 65.7112 79.3121 71.2716 75.2111 75.3726C71.1101 79.4736 65.5497 81.7803 59.75 81.7865C55.4123 81.802 51.1702 80.5132 47.5742 78.0873C41.6288 79.1391 35.5174 78.7411 29.7585 76.9272C23.9997 75.1132 18.7634 71.9368 14.4941 67.6674C10.2248 63.3981 7.04833 58.1618 5.23437 52.403C3.4204 46.6442 3.02243 40.5327 4.07424 34.5873C1.64834 30.9914 0.359488 26.7492 0.375017 22.4115C0.381221 16.6118 2.68789 11.0514 6.78891 6.95041C10.8899 2.84939 16.4503 0.54272 22.25 0.536516C26.5877 0.520987 30.8299 1.80983 34.4258 4.23573C40.3712 3.18393 46.4827 3.5819 52.2415 5.39586C58.0003 7.20983 63.2366 10.3863 67.5059 14.6556C71.7753 18.9249 74.9517 24.1612 76.7657 29.92C78.5796 35.6789 78.9776 41.7903 77.9258 47.7357C80.3517 51.3317 81.6405 55.5738 81.625 59.9115ZM75.375 59.9115C75.3868 56.4582 74.2428 53.1002 72.125 50.3725C71.8466 50.0123 71.6503 49.5956 71.5498 49.1517C71.4493 48.7077 71.4469 48.2471 71.543 47.8021C72.6493 42.6884 72.4551 37.3789 70.9782 32.3597C69.5013 27.3404 66.7888 22.7719 63.0892 19.0723C59.3897 15.3727 54.8211 12.6603 49.8019 11.1834C44.7826 9.70647 39.4731 9.51227 34.3594 10.6185C33.9144 10.7146 33.4539 10.7123 33.0099 10.6117C32.5659 10.5112 32.1493 10.3149 31.7891 10.0365C29.0613 7.91877 25.7033 6.7747 22.25 6.78652C18.106 6.78652 14.1317 8.43272 11.2015 11.363C8.27122 14.2932 6.62502 18.2675 6.62502 22.4115C6.6132 25.8648 7.75727 29.2228 9.87502 31.9506C10.1534 32.3108 10.3497 32.7274 10.4502 33.1714C10.5508 33.6154 10.5531 34.0759 10.457 34.5209C9.35077 39.6346 9.54497 44.9441 11.0219 49.9634C12.4988 54.9826 15.2112 59.5512 18.9108 63.2507C22.6104 66.9503 27.1789 69.6628 32.1982 71.1397C37.2174 72.6166 42.5269 72.8108 47.6406 71.7045C48.0856 71.6084 48.5462 71.6108 48.9902 71.7113C49.4341 71.8118 49.8508 72.0081 50.211 72.2865C52.9387 74.4043 56.2967 75.5483 59.75 75.5365C63.894 75.5365 67.8683 73.8903 70.7986 70.9601C73.7288 68.0298 75.375 64.0555 75.375 59.9115Z" fill="#0063B0"/>
</svg>
